The Conspirator 2010 PPVRIP IFLIX 
http://www.imdb.com/title/tt0968264/

Language                         : English
Format                           : AVI
Format/Info                      : Audio Video Interleave
Format profile                   : OpenDML
File size                        : 1.20 GiB
Duration                         : 2h 2mn
Overall bit rate                 : 1 411 Kbps

Video
ID                               : 0
Format                           : MPEG-4 Visual
Format profile                   : Simple@L3
Format settings, BVOP            : No
Format settings, QPel            : No
Format settings, GMC             : No warppoints
Format settings, Matrix          : Default (H.263)
Codec ID                         : XVID
Codec ID/Hint                    : XviD
Duration                         : 2h 2mn
Bit rate                         : 260 Kbps
Width                            : 720 pixels
Height                           : 480 pixels
Display aspect ratio             : 3:2
Frame rate                       : 29.970 fps
Original frame rate              : 29.000 fps
Standard                         : NTSC
Color space                      : YUV
Chroma subsampling               : 4:2:0
Bit depth                        : 8 bits
Scan type                        : Progressive
Compression mode                 : Lossy
Bits/(Pixel*Frame)               : 0.025
Stream size                      : 227 MiB (18%)
Writing library                  : XviD 1.2.1 (UTC 2008-12-04)

Audio
ID                               : 1
Format                           : MPEG Audio
Format version                   : Version 1
Format profile                   : Layer 3
Mode                             : Joint stereo
Mode extension                   : MS Stereo
Codec ID                         : 55
Codec ID/Hint                    : MP3
Duration                         : 2h 2mn
Bit rate mode                    : Constant
Bit rate                         : 128 Kbps
Channel(s)                       : 2 channels
Sampling rate                    : 44.1 KHz
Compression mode                 : Lossy
Stream size                      : 13.3 MiB (1%)
Alignment                        : Aligned on interleaves
Interleave, duration             : 34 ms (1.03 video frame)
Writing library                  : LAME3.98.2

Release notes...

Another quality release from IFLIX
More to come very soon!

Video source: Ours
Audio source: Ours

Greetings to all other groups out there. You all do awesome work and we greatly appreciate it.
IFLIX :-)